<svg xmlns="http://www.w3.org/2000/svg" width="1024" height="1200" viewBox="0 0 1024 1100">
    <defs>
        <linearGradient id="gold-gradient" x1="0%" y1="0%" x2="100%" y2="100%">
            <stop offset="0%" style="stop-color: #ffd700; stop-opacity: 1" />
            <stop offset="50%" style="stop-color: #ff8c00; stop-opacity: 1" />
            <stop offset="100%" style="stop-color: #ffd700; stop-opacity: 1" />
        </linearGradient>
    </defs>
    <g transform="translate(0, 0)">
<path d="M 573.23,550.54 L 571.81,555.57 L 569.16,565.69 L 565.44,581.00 L 567.37,572.72 L 568.59,567.65 L 569.18,565.29 L 570.35,560.65 L 570.94,558.43 L 572.11,554.04 L 572.72,551.88 L 575.20,543.28 L 576.64,538.66 L 578.12,533.97 L 578.16,533.84 M 762.88,555.33 L 761.30,556.87 L 762.88,555.33 M 764.51,553.68 L 763.02,555.19 L 764.51,553.68 M 767.61,550.21 L 766.91,551.00 L 767.61,550.21 M 769.13,548.44 L 768.38,549.32 L 769.14,548.44 M 772.01,544.74 L 771.97,544.79 L 772.01,544.74 M 773.41,542.87 L 773.18,543.19 L 773.41,542.87 M 776.03,539.00 L 775.88,539.23 L 776.03,539.00 M 777.30,537.05 L 776.72,537.93 L 777.30,537.05 M 789.73,504.50 L 789.36,507.57 L 789.01,509.12 L 788.62,510.71 L 788.38,511.59 L 787.86,513.43 L 787.54,514.50 L 785.43,520.73 L 783.75,524.88 L 782.78,526.93 L 780.76,531.03 L 779.63,533.04 L 778.59,534.84 L 779.63,533.04 L 780.76,531.03 L 782.78,526.93 L 783.75,524.88 L 785.43,520.73 L 787.54,514.50 L 787.85,513.44 L 788.37,511.61 L 788.61,510.73 L 788.99,509.14 L 789.35,507.59 L 789.72,504.55 L 789.78,503.90 M 789.80,503.68 L 789.79,503.73 L 789.82,503.20 M 787.76,469.12 L 788.40,472.75 L 788.64,474.72 L 789.07,478.79 L 789.23,481.20 L 789.38,483.69 L 789.43,484.78 L 789.05,479.68 L 788.75,476.39 L 787.89,470.25 L 787.59,468.42 M 770.69,430.88 L 772.13,432.60 L 774.96,436.12 L 776.25,437.95 L 777.71,439.98 L 778.56,441.14 L 778.90,441.58 L 779.51,442.38 L 779.70,442.60 L 780.00,442.92 L 780.00,442.87 L 779.93,442.47 L 779.81,441.98 L 779.73,441.65 L 779.33,440.14 L 779.07,439.24 L 778.56,436.95 L 778.50,436.42 L 778.51,436.26 L 778.56,436.00 L 778.63,436.00 L 779.14,436.41 L 779.56,437.06 L 779.81,437.53 L 780.30,438.57 L 780.57,439.19 L 781.09,440.49 L 781.35,441.20 L 782.37,444.16 L 782.76,445.59 L 783.12,447.00 L 783.24,447.63 L 783.46,448.83 L 783.50,449.32 L 783.84,451.73 L 784.25,453.92 L 784.51,455.21 L 784.99,457.35 L 783.83,453.74 L 782.95,451.22 L 780.87,446.50 L 779.78,444.19 L 777.27,439.84 L 775.96,437.71 L 772.99,433.68 L 769.07,429.17 M 626.54,429.15 L 625.37,430.25 L 623.27,432.32 L 622.26,433.35 L 620.42,435.36 L 618.64,437.38 L 615.55,441.75 L 614.79,442.91 L 613.30,445.45 L 612.54,446.77 L 611.32,449.12 L 612.03,447.71 L 612.60,446.62 L 613.70,444.56 L 614.21,443.69 L 615.18,442.05 L 615.61,441.40 L 619.10,436.71 L 621.74,433.67 L 623.21,432.20 L 626.22,429.31 L 627.86,427.92 L 631.21,425.20 L 632.99,423.92 L 633.53,423.55 M 749.12,415.47 L 752.72,417.04 L 754.39,417.89 L 757.67,419.63 L 759.17,420.56 L 763.29,423.60 L 764.79,424.93 L 763.92,424.18 L 762.46,422.99 L 759.22,420.77 L 757.55,419.70 L 753.89,417.71 L 752.01,416.74 L 748.53,415.23 M 646.36,416.00 L 648.55,414.93 L 649.78,414.41 M 665.71,409.30 L 661.80,410.23 L 654.42,412.64 L 651.94,413.53 L 654.92,412.33 L 657.10,411.60 L 662.97,409.86 L 667.07,408.87 L 669.19,408.46 L 673.14,407.74 M 733.17,410.27 L 733.60,410.39 L 732.91,410.21 M 719.78,407.69 L 724.29,408.48 L 724.42,408.51 L 718.41,407.54 M 678.81,406.99 L 680.16,406.82 L 681.55,406.69 M 705.79,406.26 L 707.01,406.37 L 705.43,406.25 M 759.58,558.55 L 757.86,560.05 L 759.58,558.55 Z" fill="url(#gold-gradient)"/>
<path d="M 300.40,934.52 L 296.86,933.70 L 290.14,931.70 L 286.83,930.64 L 280.61,928.17 L 277.56,926.88 L 271.85,923.95 L 269.06,922.44 L 263.91,919.09 L 261.40,917.36 L 256.82,913.59 L 254.60,911.66 L 250.62,907.49 L 248.70,905.37 L 245.35,900.83 L 241.06,893.61 L 240.12,891.78 L 238.59,888.16 L 237.88,886.36 L 236.78,882.85 L 236.28,881.12 L 235.62,877.76 L 235.35,876.10 L 235.13,872.94 L 235.07,871.38 L 235.29,868.45 L 235.46,867.02 L 236.12,864.37 L 236.51,863.08 L 237.62,860.74 L 239.79,857.65 L 240.05,857.35 L 240.95,856.64 L 241.46,856.27 L 242.74,855.45 L 244.10,854.63 L 247.40,852.94 L 249.07,852.13 L 252.18,850.87 L 252.90,850.60 L 254.12,850.24 L 255.50,850.01 L 255.79,850.01 L 255.92,850.19 L 255.91,850.31 L 255.50,850.69 L 255.22,850.90 L 254.32,851.43 L 252.46,852.37 L 251.11,853.00 L 248.58,854.63 L 247.37,855.49 L 245.26,857.44 L 244.28,858.45 L 242.77,860.54 L 241.38,863.64 L 241.17,864.46 L 240.97,866.20 L 240.90,867.08 L 240.97,868.93 L 241.10,870.80 L 242.11,874.77 L 242.72,876.78 L 244.62,880.92 L 245.67,882.99 L 248.36,887.13 L 249.78,889.18 L 253.13,893.16 L 254.88,895.12 L 258.79,898.78 L 260.80,900.55 L 265.15,903.73 L 272.05,907.78 L 274.67,909.08 L 280.01,911.28 L 282.69,912.32 L 288.17,914.00 L 290.92,914.78 L 296.51,915.95 L 299.32,916.47 L 305.01,917.13 L 307.87,917.39 L 313.65,917.52 L 316.55,917.53 L 322.41,917.14 L 325.34,916.88 L 331.25,915.97 L 340.17,914.02 L 341.85,913.58 L 345.38,912.47 L 347.18,911.88 L 350.91,910.48 L 352.80,909.75 L 356.69,908.09 L 358.65,907.23 L 362.66,905.34 L 366.69,903.40 L 374.93,898.93 L 379.05,896.61 L 387.22,891.54 L 391.26,888.96 L 399.04,883.51 L 402.84,880.76 L 409.89,875.15 L 411.59,873.74 L 414.80,870.94 L 416.37,869.54 L 419.28,866.77 L 420.70,865.39 L 423.27,862.67 L 426.72,858.69 L 427.51,857.70 L 429.29,855.27 L 430.20,853.98 L 432.12,851.09 L 434.07,848.12 L 437.97,841.59 L 438.91,839.97 L 440.67,836.80 L 441.51,835.24 L 443.00,832.34 L 443.71,830.94 L 444.83,828.49 L 445.98,825.50 L 446.06,825.22 L 446.40,824.33 L 446.60,823.83 L 447.13,822.54 L 447.42,821.84 L 448.12,820.20 L 448.49,819.35 L 449.34,817.42 L 450.22,815.44 L 452.30,810.88 L 455.68,803.62 L 457.01,800.82 L 459.43,795.54 L 460.61,792.94 L 462.75,788.01 L 463.80,785.58 L 465.70,780.92 L 466.63,778.61 L 468.32,774.12 L 469.97,769.67 L 472.76,760.93 L 476.44,747.41 L 476.93,745.40 L 478.15,740.62 L 478.79,738.15 L 480.17,732.92 L 480.86,730.32 L 482.24,725.28 L 482.57,724.07 L 483.21,721.78 L 484.11,718.64 L 484.67,716.70 L 485.85,712.24 L 486.44,709.97 L 487.57,705.28 L 488.11,702.95 L 489.07,698.58 L 489.29,697.53 L 489.67,695.60 L 490.15,693.00 L 490.28,692.21 L 490.64,690.31 L 490.83,689.31 L 491.29,687.07 L 491.78,684.75 L 492.98,679.42 L 493.60,676.69 L 494.97,671.03 L 497.05,662.91 L 497.73,660.35 L 498.97,655.61 L 499.27,654.47 L 499.81,652.36 L 500.07,651.33 L 500.55,649.48 L 500.77,648.59 L 501.15,647.05 L 501.33,646.33 L 501.61,645.16 L 501.73,644.63 L 501.90,643.89 L 502.00,643.31 L 502.00,643.24 L 501.73,643.08 L 501.55,642.99 L 500.94,642.81 L 500.60,642.72 L 499.69,642.53 L 499.20,642.43 L 498.03,642.23 L 496.79,642.03 L 493.66,641.63 L 488.25,641.06 L 480.24,640.34 L 464.16,638.35 L 456.13,637.26 L 440.07,634.55 L 432.05,633.11 L 416.13,629.72 L 408.19,627.94 L 392.51,623.89 L 384.70,621.79 L 369.37,617.12 L 361.75,614.71 L 346.88,609.45 L 339.51,606.75 L 325.20,600.92 L 304.50,591.57 L 301.37,590.06 L 295.62,587.17 L 292.83,585.74 L 287.67,582.98 L 285.16,581.61 L 280.51,578.91 L 278.24,577.56 L 274.00,574.87 L 271.92,573.51 L 267.99,570.75 L 266.05,569.36 L 262.34,566.48 L 251.54,557.08 L 247.49,553.24 L 239.99,545.51 L 236.35,541.63 L 229.68,533.80 L 226.44,529.88 L 220.58,521.96 L 217.76,517.99 L 212.72,509.97 L 210.30,505.95 L 206.08,497.84 L 204.07,493.77 L 200.66,485.56 L 199.06,481.44 L 196.46,473.12 L 193.48,460.52 L 193.15,458.78 L 192.69,455.20 L 192.59,454.27 L 192.43,452.25 L 192.35,451.20 L 192.25,448.90 L 192.20,447.70 L 192.14,445.01 L 192.12,443.60 L 192.11,440.43 L 192.11,438.78 L 192.13,435.03 L 192.22,428.65 L 192.60,405.50 L 197.84,391.64 L 198.66,389.48 L 200.19,385.56 L 200.95,383.65 L 202.40,380.16 L 203.11,378.47 L 204.52,375.32 L 205.22,373.79 L 206.63,370.90 L 208.06,368.05 L 211.11,362.73 L 216.38,354.54 L 217.20,353.34 L 219.19,350.66 L 220.23,349.30 L 222.55,346.41 L 224.93,343.51 L 230.04,337.75 L 231.30,336.37 L 233.73,333.82 L 234.91,332.59 L 237.08,330.48 L 238.12,329.49 L 239.89,327.96 L 241.93,326.52 L 242.10,326.43 L 242.62,326.11 L 242.91,325.93 L 243.62,325.45 L 244.37,324.94 L 246.32,323.54 L 247.34,322.79 L 249.65,321.06 L 253.25,318.27 L 255.22,316.72 L 259.57,313.58 L 260.71,312.78 L 263.16,311.13 L 264.42,310.30 L 267.14,308.55 L 268.54,307.66 L 271.58,305.78 L 273.15,304.82 L 276.57,302.77 L 278.33,301.73 L 282.18,299.48 L 288.50,295.86 L 290.10,294.95 L 294.02,292.87 L 296.08,291.79 L 300.71,289.47 L 303.08,288.30 L 308.13,285.88 L 310.68,284.66 L 315.87,282.27 L 318.46,281.08 L 323.50,278.84 L 325.98,277.75 L 330.60,275.79 L 332.83,274.86 L 336.74,273.31 L 337.66,272.96 L 339.32,272.35 L 341.50,271.60 L 342.88,271.16 L 346.00,270.21 L 347.62,269.72 L 351.17,268.71 L 353.00,268.19 L 356.91,267.13 L 358.90,266.59 L 363.11,265.50 L 367.37,264.40 L 376.49,262.19 L 390.50,258.98 L 391.88,258.68 L 394.45,258.07 L 395.68,257.76 L 397.80,257.20 L 398.78,256.94 L 400.21,256.49 L 401.32,256.02 L 401.44,255.91 L 401.45,255.06 L 401.42,254.55 L 401.17,253.02 L 401.02,252.19 L 400.56,250.19 L 399.66,246.88 L 399.02,244.72 L 397.90,240.86 L 397.37,239.00 L 396.44,235.63 L 395.99,233.99 L 395.22,230.95 L 394.84,229.46 L 394.18,226.61 L 393.55,223.77 L 392.49,218.01 L 392.23,216.51 L 391.73,213.29 L 390.95,208.00 L 390.37,203.89 L 389.60,196.18 L 389.28,192.39 L 389.04,185.19 L 388.99,181.64 L 389.33,174.79 L 389.56,171.40 L 390.49,164.76 L 391.02,161.45 L 392.56,154.85 L 393.41,151.54 L 395.59,144.83 L 396.76,141.44 L 399.61,134.46 L 404.67,123.50 L 406.20,120.39 L 409.35,114.62 L 410.93,111.82 L 414.11,106.80 L 415.69,104.39 L 418.78,100.28 L 419.54,99.32 L 421.03,97.60 L 423.19,95.34 L 423.98,94.57 L 426.12,92.71 L 427.26,91.73 L 429.93,89.56 L 431.32,88.45 L 434.34,86.12 L 435.88,84.94 L 439.05,82.59 L 440.63,81.43 L 443.76,79.21 L 445.29,78.13 L 448.17,76.18 L 449.56,75.25 L 451.99,73.71 L 454.94,72.04 L 456.14,71.43 L 458.77,70.19 L 460.12,69.56 L 463.01,68.29 L 465.96,67.01 L 472.47,64.42 L 475.79,63.13 L 482.79,60.60 L 486.32,59.35 L 493.48,56.98 L 497.04,55.83 L 504.00,53.75 L 507.43,52.75 L 513.86,51.05 L 515.41,50.66 L 518.37,49.96 L 519.82,49.63 L 522.53,49.07 L 523.84,48.80 L 526.26,48.39 L 529.50,47.95 L 531.64,47.73 L 536.55,47.31 L 539.08,47.11 L 544.58,46.74 L 550.16,46.38 L 561.94,45.84 L 564.85,45.73 L 570.46,45.55 L 573.22,45.48 L 578.34,45.40 L 580.81,45.37 L 585.15,45.38 L 586.18,45.40 L 588.03,45.44 L 590.50,45.53 L 597.81,45.92 L 612.02,47.10 L 619.04,47.75 L 632.55,49.45 L 639.20,50.35 L 651.86,52.53 L 654.96,53.10 L 660.98,54.32 L 663.95,54.95 L 669.70,56.28 L 672.54,56.95 L 678.00,58.39 L 680.69,59.11 L 685.84,60.64 L 688.38,61.42 L 693.20,63.04 L 695.57,63.86 L 700.05,65.57 L 702.24,66.43 L 706.35,68.22 L 708.36,69.13 L 712.07,70.99 L 713.88,71.94 L 717.20,73.88 L 721.68,76.86 L 722.97,77.80 L 725.29,80.15 L 726.39,81.38 L 728.27,84.18 L 729.13,85.61 L 730.44,88.65 L 731.62,93.26 L 731.83,94.76 L 731.53,97.83 L 731.28,99.36 L 730.16,102.27 L 729.51,103.69 L 727.69,106.17 L 724.32,109.11 L 723.47,109.64 L 721.99,110.33 L 721.59,110.47 L 720.69,110.68 L 720.20,110.78 L 719.02,110.89 L 718.38,110.94 L 716.78,110.97 L 715.92,110.98 L 713.78,110.94 L 712.63,110.91 L 709.80,110.80 L 704.64,110.58 L 703.53,110.53 L 701.08,110.41 L 699.82,110.34 L 697.15,110.20 L 694.43,110.05 L 688.69,109.70 L 685.82,109.53 L 680.29,109.16 L 678.96,109.07 L 676.44,108.89 L 673.00,108.62 L 657.50,107.39 L 675.50,106.69 L 677.98,106.59 L 682.50,106.41 L 684.69,106.32 L 688.67,106.16 L 690.59,106.08 L 694.06,105.93 L 695.74,105.86 L 698.74,105.72 L 700.18,105.65 L 702.76,105.52 L 703.99,105.46 L 706.17,105.33 L 707.22,105.27 L 709.04,105.14 L 709.91,105.07 L 711.42,104.94 L 712.86,104.81 L 714.95,104.52 L 715.88,104.37 L 717.19,104.01 L 717.78,103.83 L 718.62,103.39 L 719.68,102.60 L 720.47,101.92 L 721.51,100.04 L 721.93,99.05 L 722.23,96.79 L 722.28,95.64 L 721.82,93.32 L 720.26,90.12 L 719.65,89.31 L 717.70,87.62 L 716.62,86.78 L 713.79,85.06 L 712.27,84.21 L 708.67,82.51 L 706.79,81.66 L 702.53,80.01 L 700.33,79.20 L 695.53,77.64 L 693.07,76.88 L 687.82,75.46 L 685.16,74.77 L 679.59,73.53 L 671.00,71.91 L 662.45,70.49 L 645.81,68.11 L 641.70,67.55 L 633.70,66.57 L 629.73,66.09 L 622.05,65.28 L 618.25,64.89 L 610.97,64.26 L 607.38,63.96 L 600.55,63.51 L 597.20,63.30 L 590.91,63.04 L 582.14,62.87 L 577.85,62.86 L 569.83,63.08 L 565.91,63.22 L 558.52,63.78 L 554.90,64.10 L 548.02,65.01 L 544.64,65.51 L 538.16,66.82 L 534.96,67.52 L 528.76,69.24 L 525.68,70.15 L 519.63,72.31 L 516.62,73.44 L 510.61,76.07 L 501.50,80.56 L 499.29,81.73 L 495.33,83.90 L 493.43,84.96 L 490.00,86.98 L 488.34,87.98 L 485.33,89.93 L 483.87,90.90 L 481.16,92.87 L 478.51,94.85 L 473.65,99.21 L 472.44,100.36 L 469.98,102.86 L 466.15,107.00 L 464.02,109.37 L 459.99,114.21 L 458.00,116.65 L 454.26,121.62 L 452.43,124.13 L 449.00,129.22 L 447.32,131.79 L 444.19,137.00 L 442.66,139.61 L 439.85,144.92 L 438.48,147.59 L 435.98,152.99 L 434.78,155.71 L 432.61,161.19 L 429.73,169.50 L 428.78,172.52 L 427.18,178.32 L 426.43,181.19 L 425.24,186.74 L 424.69,189.48 L 423.89,194.80 L 423.55,197.44 L 423.15,202.59 L 423.00,205.15 L 422.99,210.17 L 423.04,212.68 L 423.43,217.62 L 423.67,220.08 L 424.44,224.99 L 426.04,232.36 L 426.46,233.99 L 427.32,237.22 L 427.75,238.80 L 428.57,241.68 L 428.97,243.05 L 429.65,245.25 L 429.81,245.74 L 430.08,246.55 L 430.41,247.44 L 431.75,250.65 L 443.62,248.86 L 445.60,248.56 L 449.32,248.01 L 451.15,247.74 L 454.63,247.25 L 458.06,246.78 L 464.46,246.00 L 467.63,245.64 L 473.92,245.06 L 477.10,244.80 L 483.80,244.39 L 485.52,244.30 L 489.14,244.15 L 490.99,244.07 L 494.90,243.95 L 496.89,243.89 L 501.15,243.80 L 503.33,243.76 L 508.01,243.69 L 510.41,243.66 L 515.58,243.62 L 518.23,243.60 L 523.95,243.57 L 526.88,243.56 L 533.22,243.55 L 543.50,243.55 L 546.36,243.55 L 551.68,243.56 L 554.27,243.57 L 559.09,243.58 L 561.44,243.59 L 565.79,243.60 L 567.92,243.61 L 571.83,243.64 L 573.74,243.65 L 577.26,243.68 L 578.97,243.70 L 582.11,243.74 L 583.64,243.76 L 586.45,243.81 L 587.81,243.84 L 590.31,243.90 L 592.74,243.96 L 596.81,244.12 L 598.74,244.20 L 602.01,244.41 L 603.56,244.52 L 606.27,244.78 L 610.00,245.25 L 614.00,245.82 L 621.46,247.22 L 625.10,247.95 L 631.83,249.66 L 635.11,250.56 L 641.11,252.58 L 644.01,253.64 L 649.26,255.97 L 651.80,257.17 L 656.29,259.81 L 658.44,261.16 L 662.16,264.09 L 663.93,265.60 L 666.87,268.82 L 670.39,273.98 L 671.00,275.10 L 671.85,276.89 L 672.21,277.74 L 672.65,279.31 L 672.82,280.11 L 672.92,281.85 L 672.80,285.11 L 672.68,286.78 L 672.14,289.53 L 671.81,290.82 L 670.69,293.08 L 670.04,294.18 L 668.12,296.30 L 667.58,296.84 L 666.32,297.95 L 664.12,299.72 L 663.59,300.13 L 662.16,300.98 L 661.40,301.42 L 659.53,302.32 L 658.55,302.78 L 656.28,303.71 L 655.11,304.18 L 652.49,305.14 L 651.14,305.62 L 648.22,306.58 L 646.72,307.07 L 643.54,308.03 L 640.29,309.00 L 633.19,310.87 L 629.57,311.79 L 621.99,313.52 L 618.17,314.36 L 610.45,315.85 L 606.61,316.55 L 599.11,317.71 L 588.50,318.98 L 587.19,319.10 L 584.35,319.31 L 582.90,319.41 L 579.80,319.56 L 576.65,319.71 L 569.74,319.85 L 566.21,319.91 L 558.78,319.88 L 555.03,319.84 L 547.40,319.65 L 543.59,319.53 L 536.06,319.17 L 532.34,318.98 L 525.24,318.47 L 521.77,318.20 L 515.40,317.56 L 513.86,317.39 L 510.99,317.03 L 507.01,316.45 L 504.92,316.12 L 500.16,315.14 L 497.70,314.60 L 492.39,313.28 L 489.68,312.58 L 484.04,310.99 L 481.20,310.16 L 475.46,308.37 L 472.59,307.45 L 466.98,305.53 L 464.21,304.57 L 458.96,302.59 L 456.39,301.61 L 451.73,299.66 L 445.64,296.84 L 444.78,296.41 L 442.79,295.30 L 441.75,294.71 L 439.49,293.35 L 437.19,291.95 L 432.32,288.74 L 429.91,287.13 L 425.56,283.99 L 424.55,283.24 L 422.80,281.86 L 420.68,280.06 L 416.36,276.07 L 403.93,278.58 L 398.83,279.60 L 389.06,281.79 L 384.24,282.91 L 375.01,285.28 L 370.46,286.48 L 361.75,289.04 L 357.47,290.34 L 349.28,293.09 L 345.25,294.49 L 337.56,297.44 L 333.78,298.94 L 326.58,302.09 L 323.04,303.69 L 316.32,307.05 L 306.75,312.33 L 305.37,313.14 L 302.40,314.99 L 300.89,315.96 L 297.74,318.05 L 294.57,320.19 L 288.24,324.77 L 286.69,325.91 L 283.77,328.14 L 282.34,329.25 L 279.75,331.35 L 278.50,332.37 L 276.36,334.24 L 273.80,336.67 L 272.53,337.98 L 269.92,340.90 L 268.60,342.39 L 265.95,345.59 L 263.30,348.84 L 258.22,355.73 L 256.99,357.45 L 254.69,360.86 L 253.57,362.54 L 251.53,365.80 L 250.55,367.41 L 248.86,370.42 L 246.80,374.53 L 245.87,376.57 L 244.19,380.95 L 243.38,383.18 L 241.94,387.94 L 241.24,390.36 L 240.02,395.50 L 239.44,398.11 L 238.46,403.61 L 237.99,406.41 L 237.24,412.27 L 236.89,415.25 L 236.37,421.48 L 236.14,424.64 L 235.86,431.23 L 235.69,441.50 L 235.69,444.00 L 235.76,448.50 L 235.81,450.68 L 236.00,454.66 L 236.10,456.60 L 236.42,460.21 L 236.60,461.98 L 237.08,465.37 L 237.60,468.75 L 239.23,475.53 L 239.70,477.28 L 240.80,480.98 L 242.75,487.00 L 243.65,489.68 L 245.36,494.26 L 246.23,496.48 L 248.10,500.65 L 249.09,502.75 L 251.43,507.15 L 252.06,508.30 L 253.46,510.75 L 255.82,514.75 L 257.35,517.31 L 260.30,521.94 L 261.76,524.19 L 264.67,528.30 L 266.13,530.30 L 269.10,533.99 L 270.60,535.79 L 273.75,539.19 L 275.36,540.85 L 278.80,544.06 L 280.56,545.65 L 284.39,548.78 L 286.37,550.35 L 290.71,553.52 L 297.91,558.46 L 299.08,559.23 L 301.20,560.63 L 302.23,561.31 L 304.10,562.54 L 305.92,563.74 L 308.96,565.69 L 310.40,566.61 L 312.94,568.13 L 314.18,568.86 L 316.53,570.12 L 317.71,570.74 L 320.19,571.90 L 321.48,572.49 L 324.40,573.72 L 325.94,574.35 L 329.62,575.81 L 330.60,576.20 L 332.75,577.04 L 336.32,578.43 L 340.34,579.99 L 348.79,583.08 L 353.08,584.62 L 361.94,587.60 L 370.87,590.55 L 389.11,595.92 L 393.65,597.20 L 402.57,599.56 L 406.99,600.70 L 415.56,602.75 L 419.78,603.72 L 427.80,605.39 L 439.00,607.43 L 441.04,607.75 L 445.69,608.44 L 448.10,608.78 L 453.33,609.49 L 456.00,609.84 L 461.58,610.53 L 464.40,610.88 L 470.13,611.54 L 472.99,611.87 L 478.64,612.48 L 481.43,612.77 L 486.79,613.30 L 489.41,613.55 L 494.24,613.98 L 500.68,614.46 L 509.87,615.06 L 514.53,600.81 L 514.85,599.83 L 515.53,597.61 L 515.88,596.46 L 516.61,593.97 L 517.34,591.43 L 518.82,585.89 L 519.56,583.10 L 520.92,577.57 L 522.61,570.03 L 523.09,567.75 L 524.19,562.78 L 524.75,560.27 L 525.93,555.27 L 526.52,552.82 L 527.64,548.38 L 527.91,547.33 L 528.42,545.45 L 529.10,543.00 L 530.09,539.59 L 531.99,533.17 L 532.93,530.02 L 534.73,524.09 L 535.62,521.19 L 537.33,515.72 L 538.18,513.04 L 539.82,507.98 L 540.64,505.50 L 542.23,500.81 L 543.03,498.51 L 544.59,494.16 L 545.36,492.02 L 546.91,487.96 L 547.68,485.96 L 549.22,482.14 L 550.76,478.38 L 553.92,471.44 L 555.52,468.04 L 558.90,461.57 L 560.63,458.36 L 564.35,452.03 L 570.48,442.32 L 571.66,440.52 L 573.73,437.42 L 574.73,435.94 L 576.53,433.35 L 577.41,432.10 L 579.08,429.86 L 579.91,428.76 L 581.59,426.69 L 582.44,425.66 L 584.27,423.58 L 585.22,422.53 L 587.35,420.30 L 588.46,419.14 L 591.02,416.57 L 595.50,412.14 L 596.89,410.78 L 599.27,408.47 L 600.41,407.38 L 602.38,405.54 L 603.33,404.67 L 605.05,403.19 L 605.89,402.48 L 607.50,401.25 L 609.11,400.05 L 612.62,397.95 L 613.57,397.41 L 615.73,396.27 L 619.50,394.34 L 621.17,393.50 L 624.18,392.02 L 625.63,391.31 L 628.30,390.06 L 630.90,388.84 L 635.59,386.89 L 637.93,385.96 L 642.84,384.26 L 644.12,383.84 L 646.90,382.97 L 651.50,381.60 L 653.53,381.01 L 657.20,379.99 L 658.98,379.51 L 662.30,378.70 L 665.57,377.93 L 671.84,376.89 L 673.45,376.67 L 676.83,376.30 L 678.56,376.13 L 682.33,375.87 L 684.28,375.74 L 688.63,375.55 L 696.00,375.31 L 699.58,375.22 L 706.28,375.20 L 709.56,375.22 L 715.73,375.45 L 718.75,375.60 L 724.49,376.10 L 727.31,376.38 L 732.72,377.16 L 735.39,377.59 L 740.58,378.66 L 743.15,379.24 L 748.22,380.63 L 750.75,381.36 L 755.80,383.08 L 763.48,386.06 L 765.30,386.81 L 768.92,388.55 L 770.72,389.45 L 774.30,391.47 L 777.86,393.55 L 784.79,398.46 L 788.21,401.02 L 794.74,406.79 L 797.94,409.76 L 803.94,416.23 L 806.86,419.54 L 812.19,426.56 L 814.76,430.12 L 819.29,437.53 L 821.44,441.27 L 825.03,448.92 L 825.86,450.84 L 827.32,454.70 L 829.20,460.50 L 829.71,462.26 L 830.41,465.29 L 830.72,466.81 L 831.10,470.12 L 831.18,471.02 L 831.29,473.03 L 831.34,474.09 L 831.40,476.52 L 831.42,477.80 L 831.44,480.78 L 831.44,486.00 L 831.44,488.02 L 831.41,491.44 L 831.40,493.06 L 831.34,495.79 L 831.31,497.09 L 831.20,499.30 L 831.14,500.35 L 830.97,502.19 L 830.78,503.98 L 830.14,507.13 L 829.95,507.93 L 829.48,509.64 L 828.63,512.50 L 827.78,515.27 L 825.84,520.68 L 824.82,523.37 L 822.55,528.60 L 821.37,531.20 L 818.75,536.26 L 817.40,538.77 L 814.44,543.67 L 812.92,546.10 L 809.62,550.83 L 807.93,553.18 L 804.28,557.75 L 802.41,560.02 L 798.41,564.43 L 796.36,566.62 L 792.01,570.88 L 789.78,572.99 L 785.07,577.11 L 782.67,579.14 L 777.59,583.11 L 775.00,585.07 L 769.56,588.89 L 766.79,590.79 L 760.98,594.47 L 758.02,596.29 L 751.83,599.83 L 748.69,601.59 L 742.13,605.00 L 738.80,606.69 L 731.85,609.97 L 721.00,614.75 L 716.18,616.78 L 706.03,620.48 L 700.87,622.28 L 689.96,625.54 L 684.41,627.12 L 672.67,629.94 L 666.69,631.30 L 654.04,633.71 L 650.82,634.29 L 644.20,635.36 L 640.85,635.89 L 633.98,636.86 L 630.51,637.33 L 623.37,638.21 L 619.76,638.64 L 612.36,639.41 L 608.62,639.79 L 600.93,640.47 L 597.05,640.80 L 589.07,641.39 L 585.04,641.67 L 576.76,642.17 L 564.00,642.81 L 548.50,643.50 L 537.69,675.00 L 536.94,677.17 L 535.39,681.80 L 534.61,684.15 L 533.01,689.05 L 531.42,693.98 L 528.28,704.00 L 527.52,706.47 L 526.07,711.26 L 525.36,713.62 L 524.05,718.08 L 523.42,720.26 L 522.29,724.24 L 520.86,729.50 L 520.33,731.52 L 519.34,735.30 L 518.86,737.16 L 517.94,740.62 L 517.49,742.32 L 516.65,745.50 L 516.23,747.05 L 515.45,749.96 L 514.68,752.80 L 513.31,757.79 L 512.64,760.19 L 511.43,764.44 L 510.83,766.48 L 509.72,770.18 L 509.17,771.98 L 508.10,775.32 L 504.77,785.00 L 503.32,789.04 L 499.79,797.37 L 497.93,801.57 L 493.69,810.08 L 491.48,814.35 L 486.62,822.90 L 484.12,827.16 L 478.74,835.57 L 476.00,839.74 L 470.22,847.85 L 467.29,851.85 L 461.21,859.50 L 458.15,863.25 L 451.88,870.28 L 442.37,879.95 L 438.61,883.52 L 430.72,890.31 L 426.72,893.64 L 418.45,899.91 L 414.29,902.97 L 405.78,908.65 L 401.51,911.40 L 392.89,916.41 L 388.58,918.82 L 379.97,923.09 L 375.69,925.13 L 367.23,928.59 L 363.03,930.21 L 354.84,932.79 L 352.81,933.38 L 348.84,934.37 L 343.00,935.59 L 341.49,935.86 L 338.20,936.27 L 336.51,936.46 L 332.94,936.72 L 329.31,936.93 L 321.65,936.90 L 317.82,936.80 L 310.38,936.15 L 308.58,935.96 L 305.15,935.45 L 303.48,935.17 M 596.70,612.42 L 600.16,612.11 L 606.65,611.47 L 609.82,611.15 L 615.83,610.48 L 618.78,610.14 L 624.40,609.42 L 627.18,609.06 L 632.51,608.28 L 637.80,607.49 L 647.93,605.66 L 663.24,602.43 L 668.18,601.30 L 677.81,598.74 L 682.58,597.41 L 691.83,594.49 L 696.39,592.98 L 705.17,589.73 L 709.49,588.06 L 717.72,584.51 L 721.76,582.70 L 729.38,578.88 L 733.11,576.94 L 740.03,572.89 L 743.40,570.84 L 749.56,566.60 L 757.86,560.05 L 759.58,558.55 L 762.88,555.33 L 764.51,553.68 L 767.61,550.21 L 769.13,548.44 L 772.01,544.74 L 773.41,542.87 L 776.03,539.00 L 777.30,537.05 L 779.63,533.04 L 780.76,531.03 L 782.78,526.93 L 783.75,524.88 L 785.43,520.73 L 787.54,514.50 L 787.86,513.43 L 788.38,511.59 L 788.62,510.71 L 789.01,509.12 L 789.36,507.57 L 789.73,504.50 L 789.80,503.68 L 789.87,501.85 L 789.89,500.88 L 789.88,498.63 L 789.87,497.44 L 789.79,494.60 L 789.62,489.50 L 789.57,487.91 L 789.44,485.07 L 789.38,483.69 L 789.23,481.20 L 789.07,478.79 L 788.64,474.72 L 788.40,472.75 L 787.76,469.12 L 786.45,463.50 L 785.74,460.75 L 784.51,455.21 L 784.25,453.92 L 783.84,451.73 L 783.50,449.32 L 783.46,448.83 L 783.24,447.63 L 783.12,447.00 L 782.76,445.59 L 782.37,444.16 L 781.35,441.20 L 781.09,440.49 L 780.57,439.19 L 780.30,438.57 L 779.81,437.53 L 779.56,437.06 L 779.14,436.41 L 778.63,436.00 L 778.56,436.00 L 778.51,436.26 L 778.50,436.42 L 778.56,436.95 L 779.07,439.24 L 779.33,440.14 L 779.73,441.65 L 779.81,441.98 L 779.93,442.47 L 780.00,442.87 L 780.00,442.92 L 779.70,442.60 L 779.51,442.38 L 778.90,441.58 L 778.56,441.14 L 777.71,439.98 L 776.25,437.95 L 774.96,436.12 L 772.13,432.60 L 770.69,430.88 L 767.71,427.71 L 766.22,426.20 L 763.29,423.60 L 759.17,420.56 L 757.67,419.63 L 754.39,417.89 L 752.72,417.04 L 749.12,415.47 L 747.29,414.71 L 743.41,413.32 L 741.44,412.65 L 737.33,411.43 L 733.17,410.27 L 724.29,408.48 L 719.78,407.69 L 710.47,406.67 L 705.79,406.26 L 696.36,406.03 L 691.66,406.02 L 682.44,406.61 L 680.16,406.82 L 675.70,407.38 L 673.49,407.68 L 669.19,408.46 L 667.07,408.87 L 662.97,409.86 L 657.10,411.60 L 654.92,412.33 L 650.66,414.04 L 648.55,414.93 L 644.46,416.94 L 642.44,417.97 L 638.55,420.24 L 636.63,421.41 L 632.99,423.92 L 631.21,425.20 L 627.86,427.92 L 626.22,429.31 L 623.21,432.20 L 621.74,433.67 L 619.10,436.71 L 615.61,441.40 L 615.18,442.05 L 614.21,443.69 L 613.70,444.56 L 612.60,446.62 L 612.03,447.71 L 610.80,450.16 L 610.17,451.43 L 608.84,454.22 L 608.17,455.66 L 606.75,458.77 L 606.03,460.36 L 604.54,463.73 L 603.03,467.17 L 599.87,474.68 L 598.28,478.52 L 595.05,486.60 L 593.43,490.68 L 590.25,499.02 L 588.68,503.20 L 585.69,511.48 L 581.55,523.50 L 580.61,526.31 L 578.93,531.46 L 578.12,533.97 L 576.64,538.66 L 575.20,543.28 L 572.72,551.88 L 572.11,554.04 L 570.94,558.43 L 570.35,560.65 L 569.18,565.29 L 568.59,567.65 L 567.37,572.72 L 565.44,581.00 L 564.95,583.12 L 564.06,586.94 L 563.63,588.78 L 562.85,592.11 L 562.46,593.72 L 561.76,596.63 L 561.42,598.04 L 560.78,600.61 L 560.16,603.11 L 559.02,607.40 L 557.34,613.35 L 557.21,613.79 L 557.31,614.37 L 557.39,614.49 L 557.73,614.67 L 557.94,614.75 L 558.59,614.85 L 558.96,614.89 L 560.00,614.91 L 560.57,614.91 L 562.07,614.87 L 562.88,614.84 L 564.92,614.75 L 568.65,614.55 L 569.46,614.50 L 571.36,614.38 L 572.35,614.32 L 574.53,614.17 L 576.77,614.02 L 581.78,613.65 L 584.32,613.45 L 589.48,613.04 L 592.02,612.83 M 593.76,296.04 L 596.13,295.72 L 601.18,294.44 L 603.71,293.71 L 608.64,291.81 L 611.03,290.80 L 615.27,288.51 L 616.26,287.92 L 618.01,286.72 L 620.22,284.91 L 621.14,284.03 L 622.38,282.73 L 622.92,282.13 L 623.50,281.11 L 623.73,280.60 L 623.82,279.51 L 623.55,277.42 L 623.35,276.35 L 622.80,274.49 L 622.51,273.61 L 621.79,272.15 L 621.41,271.47 L 620.55,270.46 L 619.12,269.49 L 619.02,269.45 L 618.58,269.35 L 618.32,269.30 L 617.57,269.16 L 616.76,269.02 L 614.41,268.67 L 613.14,268.49 L 610.11,268.09 L 605.10,267.47 L 604.03,267.35 L 601.12,267.12 L 599.55,267.01 L 595.75,266.81 L 593.75,266.71 L 589.18,266.55 L 586.81,266.47 L 581.61,266.33 L 578.93,266.27 L 573.20,266.17 L 570.29,266.12 L 564.16,266.05 L 557.97,265.98 L 544.91,265.95 L 538.35,265.94 L 525.33,266.04 L 522.12,266.07 L 515.88,266.15 L 512.80,266.20 L 506.91,266.31 L 504.02,266.38 L 498.60,266.52 L 495.96,266.60 L 491.14,266.78 L 488.81,266.87 L 484.71,267.09 L 479.50,267.44 L 476.75,267.67 L 471.66,268.12 L 469.18,268.34 L 464.67,268.79 L 462.49,269.01 L 458.60,269.44 L 456.73,269.65 L 453.50,270.06 L 451.97,270.26 L 449.43,270.65 L 448.25,270.84 L 446.45,271.19 L 445.65,271.36 L 444.62,271.69 L 444.00,272.12 L 444.00,272.22 L 444.23,272.49 L 444.38,272.64 L 444.89,273.01 L 445.46,273.41 L 447.32,274.46 L 448.35,275.02 L 450.96,276.31 L 452.33,276.98 L 455.47,278.41 L 458.69,279.86 L 465.76,282.77 L 467.50,283.46 L 470.87,284.71 L 475.50,286.31 L 479.97,287.73 L 488.91,290.13 L 493.42,291.26 L 502.70,293.13 L 507.41,293.99 L 517.38,295.38 L 519.93,295.70 L 525.23,296.27 L 533.50,297.00 L 534.32,297.07 L 536.22,297.18 L 537.21,297.23 L 539.43,297.31 L 541.71,297.39 L 547.00,297.48 L 549.73,297.51 L 555.62,297.52 L 558.60,297.51 L 564.69,297.43 L 567.73,297.38 L 573.64,297.23 L 576.53,297.15 L 581.86,296.93 L 583.14,296.87 L 585.51,296.74 L 586.67,296.67 L 588.76,296.53 L 589.77,296.45 L 591.53,296.30 L 592.37,296.21 Z" fill="url(#gold-gradient)"/>
</g>
</svg>